<?xml version="1.0" encoding="utf-8"?>
<!-- Generator: Adobe Illustrator 22.1.0, SVG Export Plug-In . SVG Version: 6.00 Build 0)  -->
<svg version="1.1" id="Layer_1" xmlns="http://www.w3.org/2000/svg" xmlns:xlink="http://www.w3.org/1999/xlink" x="0px" y="0px"
	 viewBox="0 0 144 80" style="enable-background:new 0 0 144 80;" xml:space="preserve">
<style type="text/css">
	.st0{fill:#CFD3DB;}
	.st1{filter:url(#Adobe_OpacityMaskFilter);}
	.st2{fill:#FFFFFF;}
	.st3{mask:url(#mask-2_1_);}
	.st4{fill:#97A0AF;}
	.st5{filter:url(#Adobe_OpacityMaskFilter_1_);}
	.st6{mask:url(#mask-4_1_);fill:url(#Path-6_1_);}
	.st7{filter:url(#Adobe_OpacityMaskFilter_2_);}
	.st8{mask:url(#mask-2_2_);}
	.st9{fill:#FAFBFC;}
	.st10{fill:#EAE6FF;}
	.st11{filter:url(#Adobe_OpacityMaskFilter_3_);}
	.st12{mask:url(#mask-9_1_);fill:#97A0AF;}
	.st13{filter:url(#Adobe_OpacityMaskFilter_4_);}
	.st14{mask:url(#mask-9_2_);}
	.st15{fill:#C1C7D0;}
	.st16{fill:#C0B6F2;}
	.st17{filter:url(#Adobe_OpacityMaskFilter_5_);}
	.st18{mask:url(#mask-9_3_);}
	.st19{fill:#091E42;fill-opacity:0.13;}
	.st20{filter:url(#Adobe_OpacityMaskFilter_6_);}
	.st21{mask:url(#mask-9_4_);}
	.st22{filter:url(#Adobe_OpacityMaskFilter_7_);}
	.st23{mask:url(#mask-2_3_);}
	.st24{filter:url(#Adobe_OpacityMaskFilter_8_);}
	.st25{mask:url(#mask-11_1_);fill:#97A0AF;}
	.st26{filter:url(#Adobe_OpacityMaskFilter_9_);}
	.st27{mask:url(#mask-11_2_);}
	.st28{filter:url(#Adobe_OpacityMaskFilter_10_);}
	.st29{mask:url(#mask-11_3_);}
	.st30{filter:url(#Adobe_OpacityMaskFilter_11_);}
	.st31{mask:url(#mask-2_4_);}
	.st32{filter:url(#Adobe_OpacityMaskFilter_12_);}
	.st33{mask:url(#mask-13_1_);fill:#97A0AF;}
	.st34{filter:url(#Adobe_OpacityMaskFilter_13_);}
	.st35{mask:url(#mask-13_2_);}
	.st36{fill:none;stroke:#C1C7D0;}
	.st37{filter:url(#Adobe_OpacityMaskFilter_14_);}
	.st38{mask:url(#mask-13_3_);}
	.st39{filter:url(#Adobe_OpacityMaskFilter_15_);}
	.st40{mask:url(#mask-2_5_);}
	.st41{fill:#081E42;fill-opacity:0.13;}
	.st42{fill:#8777D9;}
	.st43{fill:#403294;}
	.st44{filter:url(#Adobe_OpacityMaskFilter_16_);}
	.st45{mask:url(#mask-2_6_);fill:#6554C0;}
	.st46{filter:url(#Adobe_OpacityMaskFilter_17_);}
	.st47{mask:url(#mask-2_7_);}
	.st48{fill:#DFE1E6;}
	.st49{fill:#FF5630;}
	.st50{fill:#FFC400;}
	.st51{fill:#0065FF;}
	.st52{fill:url(#Star-Copy-31_1_);stroke:#FFC400;}
	.st53{fill:url(#Star-Copy-33_1_);stroke:#FFC400;}
	.st54{fill:url(#Star-Copy-35_1_);stroke:#FFC400;}
</style>
<title>template/thumbnail/kanban-new</title>
<desc>Created with Sketch.</desc>
<g id="template_x2F_thumbnail_x2F_kanban-new">
	<g id="Kanban-new" transform="translate(12.000000, 0.000000)">
		<g id="template-thumbnail_kanban">
			<g id="BG">
				<path id="path-1_1_" class="st0" d="M3,0h114c1.7,0,3,1.3,3,3v74c0,1.7-1.3,3-3,3H3c-1.7,0-3-1.3-3-3V3C0,1.3,1.3,0,3,0z"/>
			</g>
			<defs>
				<filter id="Adobe_OpacityMaskFilter" filterUnits="userSpaceOnUse" x="-18" y="8" width="163.3" height="80.4">
					<feColorMatrix  type="matrix" values="1 0 0 0 0  0 1 0 0 0  0 0 1 0 0  0 0 0 1 0"/>
				</filter>
			</defs>
			<mask maskUnits="userSpaceOnUse" x="-18" y="8" width="163.3" height="80.4" id="mask-2_1_">
				<g class="st1">
					<path id="path-1_2_" class="st2" d="M3,0h114c1.7,0,3,1.3,3,3v74c0,1.7-1.3,3-3,3H3c-1.7,0-3-1.3-3-3V3C0,1.3,1.3,0,3,0z"/>
				</g>
			</mask>
			<g id="BG_1_" class="st3">
				<g transform="translate(16.000000, 8.000000)">
					<g id="content">
						<path id="path-3_1_" class="st4" d="M0,0h104c0,0,0,1.3,0,3v66c0,1.7-1.3,3-3,3H3c-1.7,0-3,0-3,0V3C0,1.3,0,0,0,0z"/>
					</g>
					<defs>
						<filter id="Adobe_OpacityMaskFilter_1_" filterUnits="userSpaceOnUse" x="-34" y="8" width="163.3" height="72.4">
							<feColorMatrix  type="matrix" values="1 0 0 0 0  0 1 0 0 0  0 0 1 0 0  0 0 0 1 0"/>
						</filter>
					</defs>
					<mask maskUnits="userSpaceOnUse" x="-34" y="8" width="163.3" height="72.4" id="mask-4_1_">
						<g class="st5">
							<path id="path-3_2_" class="st2" d="M3,0h98c1.7,0,3,1.3,3,3v66c0,1.7-1.3,3-3,3H3c-1.7,0-3-1.3-3-3V3C0,1.3,1.3,0,3,0z"/>
						</g>
					</mask>
					
						<linearGradient id="Path-6_1_" gradientUnits="userSpaceOnUse" x1="-61.1051" y1="138.1723" x2="-61.3959" y2="136.9918" gradientTransform="matrix(163.345 0 0 -72.378 10059.3896 9973.4795)">
						<stop  offset="0" style="stop-color:#DFE1E6"/>
						<stop  offset="1" style="stop-color:#97A0AF"/>
					</linearGradient>
					<path id="Path-6" class="st6" d="M126,14.4c-13.9-11-64.5-7-94,6s-66-2.5-66-2.5l10.5,62.5L106,78.9
						C106,78.9,139.9,25.4,126,14.4z"/>
				</g>
			</g>
			<defs>
				<filter id="Adobe_OpacityMaskFilter_2_" filterUnits="userSpaceOnUse" x="21" y="15" width="30" height="69">
					<feColorMatrix  type="matrix" values="1 0 0 0 0  0 1 0 0 0  0 0 1 0 0  0 0 0 1 0"/>
				</filter>
			</defs>
			<mask maskUnits="userSpaceOnUse" x="21" y="15" width="30" height="69" id="mask-2_2_">
				<g class="st7">
					<path id="path-1_3_" class="st2" d="M3,0h114c1.7,0,3,1.3,3,3v74c0,1.7-1.3,3-3,3H3c-1.7,0-3-1.3-3-3V3C0,1.3,1.3,0,3,0z"/>
				</g>
			</mask>
			<g id="column-_x28_todo_x29_" class="st8">
				<g transform="translate(21.000000, 15.000000)">
					<g id="column">
						<path id="path-6_1_" class="st9" d="M2,0h26c1.1,0,2,0.9,2,2v65c0,1.1-0.9,2-2,2H2c-1.1,0-2-0.9-2-2V2C0,0.9,0.9,0,2,0z"/>
					</g>
					<g id="column_1_">
						<path id="path-8_1_" class="st10" d="M2,0h26c1.1,0,2,0.9,2,2v65c0,1.1-0.9,2-2,2H2c-1.1,0-2-0.9-2-2V2C0,0.9,0.9,0,2,0z"/>
					</g>
					<defs>
						<filter id="Adobe_OpacityMaskFilter_3_" filterUnits="userSpaceOnUse" x="2" y="2" width="7" height="3">
							<feColorMatrix  type="matrix" values="1 0 0 0 0  0 1 0 0 0  0 0 1 0 0  0 0 0 1 0"/>
						</filter>
					</defs>
					<mask maskUnits="userSpaceOnUse" x="2" y="2" width="7" height="3" id="mask-9_1_">
						<g class="st11">
							<path id="path-8_2_" class="st2" d="M2,0h26c1.1,0,2,0.9,2,2v65c0,1.1-0.9,2-2,2H2c-1.1,0-2-0.9-2-2V2C0,0.9,0.9,0,2,0z"/>
						</g>
					</mask>
					<path id="Rectangle-4" class="st12" d="M3.5,2h4C8.3,2,9,2.7,9,3.5l0,0C9,4.3,8.3,5,7.5,5h-4C2.7,5,2,4.3,2,3.5l0,0
						C2,2.7,2.7,2,3.5,2z"/>
					<defs>
						<filter id="Adobe_OpacityMaskFilter_4_" filterUnits="userSpaceOnUse" x="2" y="25" width="26" height="16">
							<feColorMatrix  type="matrix" values="1 0 0 0 0  0 1 0 0 0  0 0 1 0 0  0 0 0 1 0"/>
						</filter>
					</defs>
					<mask maskUnits="userSpaceOnUse" x="2" y="25" width="26" height="16" id="mask-9_2_">
						<g class="st13">
							<path id="path-8_3_" class="st2" d="M2,0h26c1.1,0,2,0.9,2,2v65c0,1.1-0.9,2-2,2H2c-1.1,0-2-0.9-2-2V2C0,0.9,0.9,0,2,0z"/>
						</g>
					</mask>
					<g id="card" class="st14">
						<g transform="translate(2.000000, 25.000000)">
							<path id="Rectangle-13-Copy-5" class="st2" d="M1,0h24c0.6,0,1,0.4,1,1v14c0,0.6-0.4,1-1,1H1c-0.6,0-1-0.4-1-1V1
								C0,0.4,0.4,0,1,0z"/>
							<path id="Combined-Shape" class="st15" d="M1.8,3.3c0-0.3,0.3-0.6,0.6-0.6h20.8c0.3,0,0.6,0.3,0.6,0.6c0,0.3-0.3,0.6-0.6,0.6
								H2.3C2,3.9,1.8,3.6,1.8,3.3z M1.8,6.9c0-0.3,0.3-0.6,0.6-0.6h20.8c0.3,0,0.6,0.3,0.6,0.6c0,0.3-0.3,0.6-0.6,0.6H2.3
								C2,7.5,1.8,7.2,1.8,6.9z M1.8,12.1c0-0.3,0.3-0.6,0.6-0.6h10.7c0.3,0,0.6,0.3,0.6,0.6c0,0.3-0.3,0.6-0.6,0.6H2.4
								C2,12.7,1.8,12.4,1.8,12.1z"/>
							<path id="Rectangle-13-Copy-9" class="st16" d="M22,9.9L22,9.9c1,0,1.8,0.8,1.8,1.8v0.1c0,1-0.8,1.8-1.8,1.8l0,0
								c-1,0-1.8-0.8-1.8-1.8v-0.1C20.2,10.7,21,9.9,22,9.9z"/>
						</g>
					</g>
					<defs>
						<filter id="Adobe_OpacityMaskFilter_5_" filterUnits="userSpaceOnUse" x="2" y="7" width="26" height="16">
							<feColorMatrix  type="matrix" values="1 0 0 0 0  0 1 0 0 0  0 0 1 0 0  0 0 0 1 0"/>
						</filter>
					</defs>
					<mask maskUnits="userSpaceOnUse" x="2" y="7" width="26" height="16" id="mask-9_3_">
						<g class="st17">
							<path id="path-8_4_" class="st2" d="M2,0h26c1.1,0,2,0.9,2,2v65c0,1.1-0.9,2-2,2H2c-1.1,0-2-0.9-2-2V2C0,0.9,0.9,0,2,0z"/>
						</g>
					</mask>
					<g id="card-copy-5" class="st18">
						<g id="Rectangle-13-Copy-5_1_" transform="translate(2.000000, 7.000000)">
							<path class="st19" d="M1,0h24c0.6,0,1,0.4,1,1v14c0,0.6-0.4,1-1,1H1c-0.6,0-1-0.4-1-1V1C0,0.4,0.4,0,1,0z"/>
						</g>
					</g>
					<defs>
						<filter id="Adobe_OpacityMaskFilter_6_" filterUnits="userSpaceOnUse" x="2" y="43" width="26" height="16">
							<feColorMatrix  type="matrix" values="1 0 0 0 0  0 1 0 0 0  0 0 1 0 0  0 0 0 1 0"/>
						</filter>
					</defs>
					<mask maskUnits="userSpaceOnUse" x="2" y="43" width="26" height="16" id="mask-9_4_">
						<g class="st20">
							<path id="path-8_5_" class="st2" d="M2,0h26c1.1,0,2,0.9,2,2v65c0,1.1-0.9,2-2,2H2c-1.1,0-2-0.9-2-2V2C0,0.9,0.9,0,2,0z"/>
						</g>
					</mask>
					<g id="card-copy-6" class="st21">
						<g transform="translate(2.000000, 43.000000)">
							<path id="Rectangle-13-Copy-5_2_" class="st2" d="M1,0h24c0.6,0,1,0.4,1,1v14c0,0.6-0.4,1-1,1H1c-0.6,0-1-0.4-1-1V1
								C0,0.4,0.4,0,1,0z"/>
							<path id="Combined-Shape_1_" class="st15" d="M1.8,3.3c0-0.3,0.3-0.6,0.6-0.6h20.8c0.3,0,0.6,0.3,0.6,0.6
								c0,0.3-0.3,0.6-0.6,0.6H2.3C2,3.9,1.8,3.6,1.8,3.3z M1.8,6.9c0-0.3,0.3-0.6,0.6-0.6h20.8c0.3,0,0.6,0.3,0.6,0.6
								c0,0.3-0.3,0.6-0.6,0.6H2.3C2,7.5,1.8,7.2,1.8,6.9z M1.8,12.1c0-0.3,0.3-0.6,0.6-0.6h10.7c0.3,0,0.6,0.3,0.6,0.6
								c0,0.3-0.3,0.6-0.6,0.6H2.4C2,12.7,1.8,12.4,1.8,12.1z"/>
							<path id="Rectangle-13-Copy-9_1_" class="st16" d="M22,9.9L22,9.9c1,0,1.8,0.8,1.8,1.8v0.1c0,1-0.8,1.8-1.8,1.8l0,0
								c-1,0-1.8-0.8-1.8-1.8v-0.1C20.2,10.7,21,9.9,22,9.9z"/>
						</g>
					</g>
				</g>
			</g>
			<defs>
				<filter id="Adobe_OpacityMaskFilter_7_" filterUnits="userSpaceOnUse" x="53" y="15" width="30" height="43">
					<feColorMatrix  type="matrix" values="1 0 0 0 0  0 1 0 0 0  0 0 1 0 0  0 0 0 1 0"/>
				</filter>
			</defs>
			<mask maskUnits="userSpaceOnUse" x="53" y="15" width="30" height="43" id="mask-2_3_">
				<g class="st22">
					<path id="path-1_4_" class="st2" d="M3,0h114c1.7,0,3,1.3,3,3v74c0,1.7-1.3,3-3,3H3c-1.7,0-3-1.3-3-3V3C0,1.3,1.3,0,3,0z"/>
				</g>
			</mask>
			<g id="column-_x28_in-progress_x29_" class="st23">
				<g transform="translate(53.000000, 15.000000)">
					<g id="column_2_">
						<path id="path-10_1_" class="st10" d="M2,0h26c1.1,0,2,0.9,2,2v39c0,1.1-0.9,2-2,2H2c-1.1,0-2-0.9-2-2V2C0,0.9,0.9,0,2,0z"/>
					</g>
					<defs>
						<filter id="Adobe_OpacityMaskFilter_8_" filterUnits="userSpaceOnUse" x="2" y="2" width="7" height="3">
							<feColorMatrix  type="matrix" values="1 0 0 0 0  0 1 0 0 0  0 0 1 0 0  0 0 0 1 0"/>
						</filter>
					</defs>
					<mask maskUnits="userSpaceOnUse" x="2" y="2" width="7" height="3" id="mask-11_1_">
						<g class="st24">
							<path id="path-10_2_" class="st2" d="M2,0h26c1.1,0,2,0.9,2,2v39c0,1.1-0.9,2-2,2H2c-1.1,0-2-0.9-2-2V2C0,0.9,0.9,0,2,0z"/>
						</g>
					</mask>
					<path id="Rectangle-4_1_" class="st25" d="M3.5,2h4C8.3,2,9,2.7,9,3.5l0,0C9,4.3,8.3,5,7.5,5h-4C2.7,5,2,4.3,2,3.5l0,0
						C2,2.7,2.7,2,3.5,2z"/>
					<defs>
						<filter id="Adobe_OpacityMaskFilter_9_" filterUnits="userSpaceOnUse" x="2" y="7" width="26" height="16">
							<feColorMatrix  type="matrix" values="1 0 0 0 0  0 1 0 0 0  0 0 1 0 0  0 0 0 1 0"/>
						</filter>
					</defs>
					<mask maskUnits="userSpaceOnUse" x="2" y="7" width="26" height="16" id="mask-11_2_">
						<g class="st26">
							<path id="path-10_3_" class="st2" d="M2,0h26c1.1,0,2,0.9,2,2v39c0,1.1-0.9,2-2,2H2c-1.1,0-2-0.9-2-2V2C0,0.9,0.9,0,2,0z"/>
						</g>
					</mask>
					<g id="card_1_" class="st27">
						<g transform="translate(2.000000, 7.000000)">
							<path id="Rectangle-13-Copy-5_3_" class="st2" d="M1,0h24c0.6,0,1,0.4,1,1v14c0,0.6-0.4,1-1,1H1c-0.6,0-1-0.4-1-1V1
								C0,0.4,0.4,0,1,0z"/>
							<path id="Combined-Shape_2_" class="st15" d="M1.8,3.3c0-0.3,0.3-0.6,0.6-0.6h20.8c0.3,0,0.6,0.3,0.6,0.6
								c0,0.3-0.3,0.6-0.6,0.6H2.3C2,3.9,1.8,3.6,1.8,3.3z M1.8,6.9c0-0.3,0.3-0.6,0.6-0.6h20.8c0.3,0,0.6,0.3,0.6,0.6
								c0,0.3-0.3,0.6-0.6,0.6H2.3C2,7.5,1.8,7.2,1.8,6.9z M1.8,12.1c0-0.3,0.3-0.6,0.6-0.6h10.7c0.3,0,0.6,0.3,0.6,0.6
								c0,0.3-0.3,0.6-0.6,0.6H2.4C2,12.7,1.8,12.4,1.8,12.1z"/>
							<path id="Rectangle-13-Copy-9_2_" class="st16" d="M22,9.9L22,9.9c1,0,1.8,0.8,1.8,1.8v0.1c0,1-0.8,1.8-1.8,1.8l0,0
								c-1,0-1.8-0.8-1.8-1.8v-0.1C20.2,10.7,21,9.9,22,9.9z"/>
						</g>
					</g>
					<defs>
						<filter id="Adobe_OpacityMaskFilter_10_" filterUnits="userSpaceOnUse" x="2" y="25" width="26" height="16">
							<feColorMatrix  type="matrix" values="1 0 0 0 0  0 1 0 0 0  0 0 1 0 0  0 0 0 1 0"/>
						</filter>
					</defs>
					<mask maskUnits="userSpaceOnUse" x="2" y="25" width="26" height="16" id="mask-11_3_">
						<g class="st28">
							<path id="path-10_4_" class="st2" d="M2,0h26c1.1,0,2,0.9,2,2v39c0,1.1-0.9,2-2,2H2c-1.1,0-2-0.9-2-2V2C0,0.9,0.9,0,2,0z"/>
						</g>
					</mask>
					<g id="card-copy" class="st29">
						<g id="Rectangle-13-Copy-5_4_" transform="translate(2.000000, 25.000000)">
							<path class="st19" d="M1,0h24c0.6,0,1,0.4,1,1v14c0,0.6-0.4,1-1,1H1c-0.6,0-1-0.4-1-1V1C0,0.4,0.4,0,1,0z"/>
						</g>
					</g>
				</g>
			</g>
			<defs>
				<filter id="Adobe_OpacityMaskFilter_11_" filterUnits="userSpaceOnUse" x="85" y="15" width="30" height="69">
					<feColorMatrix  type="matrix" values="1 0 0 0 0  0 1 0 0 0  0 0 1 0 0  0 0 0 1 0"/>
				</filter>
			</defs>
			<mask maskUnits="userSpaceOnUse" x="85" y="15" width="30" height="69" id="mask-2_4_">
				<g class="st30">
					<path id="path-1_5_" class="st2" d="M3,0h114c1.7,0,3,1.3,3,3v74c0,1.7-1.3,3-3,3H3c-1.7,0-3-1.3-3-3V3C0,1.3,1.3,0,3,0z"/>
				</g>
			</mask>
			<g id="column-_x28_done_x29_" class="st31">
				<g transform="translate(85.000000, 15.000000)">
					<g id="column_3_">
						<path id="path-12_1_" class="st10" d="M2,0h26c1.1,0,2,0.9,2,2v65c0,1.1-0.9,2-2,2H2c-1.1,0-2-0.9-2-2V2C0,0.9,0.9,0,2,0z"/>
					</g>
					<defs>
						<filter id="Adobe_OpacityMaskFilter_12_" filterUnits="userSpaceOnUse" x="2" y="2" width="7" height="3">
							<feColorMatrix  type="matrix" values="1 0 0 0 0  0 1 0 0 0  0 0 1 0 0  0 0 0 1 0"/>
						</filter>
					</defs>
					<mask maskUnits="userSpaceOnUse" x="2" y="2" width="7" height="3" id="mask-13_1_">
						<g class="st32">
							<path id="path-12_2_" class="st2" d="M2,0h26c1.1,0,2,0.9,2,2v65c0,1.1-0.9,2-2,2H2c-1.1,0-2-0.9-2-2V2C0,0.9,0.9,0,2,0z"/>
						</g>
					</mask>
					<path id="Rectangle-4_2_" class="st33" d="M3.5,2h4C8.3,2,9,2.7,9,3.5l0,0C9,4.3,8.3,5,7.5,5h-4C2.7,5,2,4.3,2,3.5l0,0
						C2,2.7,2.7,2,3.5,2z"/>
					<defs>
						<filter id="Adobe_OpacityMaskFilter_13_" filterUnits="userSpaceOnUse" x="2" y="7" width="26" height="16">
							<feColorMatrix  type="matrix" values="1 0 0 0 0  0 1 0 0 0  0 0 1 0 0  0 0 0 1 0"/>
						</filter>
					</defs>
					<mask maskUnits="userSpaceOnUse" x="2" y="7" width="26" height="16" id="mask-13_2_">
						<g class="st34">
							<path id="path-12_3_" class="st2" d="M2,0h26c1.1,0,2,0.9,2,2v65c0,1.1-0.9,2-2,2H2c-1.1,0-2-0.9-2-2V2C0,0.9,0.9,0,2,0z"/>
						</g>
					</mask>
					<g id="card_2_" class="st35">
						<g transform="translate(2.000000, 7.000000)">
							<path id="Rectangle-13-Copy-5_5_" class="st2" d="M1,0h24c0.6,0,1,0.4,1,1v14c0,0.6-0.4,1-1,1H1c-0.6,0-1-0.4-1-1V1
								C0,0.4,0.4,0,1,0z"/>
							<polyline id="done" class="st36" points="6.8,10.4 4,13.2 2.8,12 							"/>
							<path id="Combined-Shape_3_" class="st15" d="M1.8,3.3c0-0.3,0.3-0.6,0.6-0.6h20.8c0.3,0,0.6,0.3,0.6,0.6
								c0,0.3-0.3,0.6-0.6,0.6H2.3C2,3.9,1.8,3.6,1.8,3.3z M1.8,6.9c0-0.3,0.3-0.6,0.6-0.6h20.8c0.3,0,0.6,0.3,0.6,0.6
								c0,0.3-0.3,0.6-0.6,0.6H2.3C2,7.5,1.8,7.2,1.8,6.9z"/>
							<path id="Rectangle-13-Copy-9_3_" class="st16" d="M22,9.9L22,9.9c1,0,1.8,0.8,1.8,1.8v0.1c0,1-0.8,1.8-1.8,1.8l0,0
								c-1,0-1.8-0.8-1.8-1.8v-0.1C20.2,10.7,21,9.9,22,9.9z"/>
						</g>
					</g>
					<defs>
						<filter id="Adobe_OpacityMaskFilter_14_" filterUnits="userSpaceOnUse" x="2" y="25" width="26" height="16">
							<feColorMatrix  type="matrix" values="1 0 0 0 0  0 1 0 0 0  0 0 1 0 0  0 0 0 1 0"/>
						</filter>
					</defs>
					<mask maskUnits="userSpaceOnUse" x="2" y="25" width="26" height="16" id="mask-13_3_">
						<g class="st37">
							<path id="path-12_4_" class="st2" d="M2,0h26c1.1,0,2,0.9,2,2v65c0,1.1-0.9,2-2,2H2c-1.1,0-2-0.9-2-2V2C0,0.9,0.9,0,2,0z"/>
						</g>
					</mask>
					<g id="card-copy-3" class="st38">
						<g transform="translate(2.000000, 25.000000)">
							<path id="Rectangle-13-Copy-5_6_" class="st2" d="M1,0h24c0.6,0,1,0.4,1,1v14c0,0.6-0.4,1-1,1H1c-0.6,0-1-0.4-1-1V1
								C0,0.4,0.4,0,1,0z"/>
							<polyline id="done_1_" class="st36" points="6.8,10.4 4,13.2 2.8,12 							"/>
							<path id="Combined-Shape_4_" class="st15" d="M1.8,3.3c0-0.3,0.3-0.6,0.6-0.6h20.8c0.3,0,0.6,0.3,0.6,0.6
								c0,0.3-0.3,0.6-0.6,0.6H2.3C2,3.9,1.8,3.6,1.8,3.3z M1.8,6.9c0-0.3,0.3-0.6,0.6-0.6h20.8c0.3,0,0.6,0.3,0.6,0.6
								c0,0.3-0.3,0.6-0.6,0.6H2.3C2,7.5,1.8,7.2,1.8,6.9z"/>
							<path id="Rectangle-13-Copy-9_4_" class="st16" d="M22,9.9L22,9.9c1,0,1.8,0.8,1.8,1.8v0.1c0,1-0.8,1.8-1.8,1.8l0,0
								c-1,0-1.8-0.8-1.8-1.8v-0.1C20.2,10.7,21,9.9,22,9.9z"/>
						</g>
					</g>
				</g>
			</g>
			<defs>
				<filter id="Adobe_OpacityMaskFilter_15_" filterUnits="userSpaceOnUse" x="38" y="26" width="28" height="18">
					<feColorMatrix  type="matrix" values="1 0 0 0 0  0 1 0 0 0  0 0 1 0 0  0 0 0 1 0"/>
				</filter>
			</defs>
			<mask maskUnits="userSpaceOnUse" x="38" y="26" width="28" height="18" id="mask-2_5_">
				<g class="st39">
					<path id="path-1_6_" class="st2" d="M3,0h114c1.7,0,3,1.3,3,3v74c0,1.7-1.3,3-3,3H3c-1.7,0-3-1.3-3-3V3C0,1.3,1.3,0,3,0z"/>
				</g>
			</mask>
			<g id="card-_x28_drag_x29_" class="st40">
				<g transform="translate(38.000000, 26.000000)">
					<path id="shadow" class="st41" d="M3,2h24c0.6,0,1,0.4,1,1v14c0,0.6-0.4,1-1,1H3c-0.6,0-1-0.4-1-1V3C2,2.4,2.4,2,3,2z"/>
					<path id="Rectangle-13-Copy-10" class="st42" d="M1,0h24c0.6,0,1,0.4,1,1v14c0,0.6-0.4,1-1,1H1c-0.6,0-1-0.4-1-1V1
						C0,0.4,0.4,0,1,0z"/>
					<path id="Combined-Shape_5_" class="st43" d="M1.8,3.3c0-0.3,0.3-0.6,0.6-0.6h20.8c0.3,0,0.6,0.3,0.6,0.6
						c0,0.3-0.3,0.6-0.6,0.6H2.3C2,3.9,1.8,3.6,1.8,3.3z M1.8,6.9c0-0.3,0.3-0.6,0.6-0.6h20.8c0.3,0,0.6,0.3,0.6,0.6
						c0,0.3-0.3,0.6-0.6,0.6H2.3C2,7.5,1.8,7.2,1.8,6.9z M1.8,12.1c0-0.3,0.3-0.6,0.6-0.6h10.7c0.3,0,0.6,0.3,0.6,0.6
						c0,0.3-0.3,0.6-0.6,0.6H2.4C2,12.7,1.8,12.4,1.8,12.1z"/>
					<path id="Rectangle-13-Copy-9_5_" class="st16" d="M22,9.9L22,9.9c1,0,1.8,0.8,1.8,1.8v0.1c0,1-0.8,1.8-1.8,1.8l0,0
						c-1,0-1.8-0.8-1.8-1.8v-0.1C20.2,10.7,21,9.9,22,9.9z"/>
				</g>
			</g>
			<defs>
				<filter id="Adobe_OpacityMaskFilter_16_" filterUnits="userSpaceOnUse" x="0" y="0" width="16" height="80">
					<feColorMatrix  type="matrix" values="1 0 0 0 0  0 1 0 0 0  0 0 1 0 0  0 0 0 1 0"/>
				</filter>
			</defs>
			<mask maskUnits="userSpaceOnUse" x="0" y="0" width="16" height="80" id="mask-2_6_">
				<g class="st44">
					<path id="path-1_7_" class="st2" d="M3,0h114c1.7,0,3,1.3,3,3v74c0,1.7-1.3,3-3,3H3c-1.7,0-3-1.3-3-3V3C0,1.3,1.3,0,3,0z"/>
				</g>
			</mask>
			<rect id="sidenav" y="0" class="st45" width="16" height="80"/>
			<defs>
				<filter id="Adobe_OpacityMaskFilter_17_" filterUnits="userSpaceOnUse" x="0" y="0" width="120" height="8">
					<feColorMatrix  type="matrix" values="1 0 0 0 0  0 1 0 0 0  0 0 1 0 0  0 0 0 1 0"/>
				</filter>
			</defs>
			<mask maskUnits="userSpaceOnUse" x="0" y="0" width="120" height="8" id="mask-2_7_">
				<g class="st46">
					<path id="path-1_8_" class="st2" d="M3,0h114c1.7,0,3,1.3,3,3v74c0,1.7-1.3,3-3,3H3c-1.7,0-3-1.3-3-3V3C0,1.3,1.3,0,3,0z"/>
				</g>
			</mask>
			<g id="top" class="st47">
				<rect id="Rectangle-26-Copy-2" y="0" class="st48" width="120" height="8"/>
				<circle id="Oval-9" class="st49" cx="4" cy="4" r="2"/>
				<circle id="Oval-9-Copy" class="st50" cx="10" cy="4" r="2"/>
				<circle id="Oval-9-Copy-2" class="st51" cx="16" cy="4" r="2"/>
			</g>
		</g>
	</g>
	<g id="Sparkles" transform="translate(2.000000, 12.000000)">
		
			<linearGradient id="Star-Copy-31_1_" gradientUnits="userSpaceOnUse" x1="-34.5556" y1="132.2604" x2="-34.0556" y2="131.2604" gradientTransform="matrix(29.7095 0 0 -29.4902 1036.802 3904.5925)">
			<stop  offset="0" style="stop-color:#FFE380"/>
			<stop  offset="1" style="stop-color:#FFAB00"/>
		</linearGradient>
		<path id="Star-Copy-31" class="st52" d="M1.6,16.5l10.1,3.9l4,10c0.1,0.1,0.2,0.2,0.3,0.3c0.3,0.1,0.6,0,0.7-0.3l4-10l10.1-3.9
			c0.1-0.1,0.2-0.2,0.3-0.3c0.1-0.3,0-0.5-0.3-0.6l-10.1-3.9l-4-10c-0.1-0.1-0.2-0.2-0.3-0.3c-0.3-0.1-0.6,0-0.7,0.3l-4,10L1.6,15.5
			c-0.1,0.1-0.2,0.2-0.3,0.3C1.2,16.1,1.3,16.4,1.6,16.5z"/>
		
			<linearGradient id="Star-Copy-33_1_" gradientUnits="userSpaceOnUse" x1="-33.0052" y1="129.2267" x2="-32.5052" y2="128.2267" gradientTransform="matrix(12.6168 0 0 -12.5197 440.0847 1646.8668)">
			<stop  offset="0" style="stop-color:#FFE380"/>
			<stop  offset="1" style="stop-color:#FFAB00"/>
		</linearGradient>
		<path id="Star-Copy-33" class="st53" d="M20.2,34.5l4,1.5l1.6,3.9c0.1,0.1,0.2,0.2,0.3,0.3c0.3,0.1,0.6,0,0.7-0.3l1.6-3.9l4-1.5
			c0.1-0.1,0.2-0.2,0.3-0.3c0.1-0.3,0-0.5-0.3-0.6l-4-1.5l-1.6-3.9c-0.1-0.1-0.2-0.2-0.3-0.3c-0.3-0.1-0.6,0-0.7,0.3L24.2,32l-4,1.5
			c-0.1,0.1-0.2,0.2-0.3,0.3C19.8,34.1,19.9,34.4,20.2,34.5z"/>
		
			<linearGradient id="Star-Copy-35_1_" gradientUnits="userSpaceOnUse" x1="-33.8435" y1="130.8674" x2="-33.3435" y2="129.8674" gradientTransform="matrix(18.3144 0 0 -18.1765 746.089 2397.4421)">
			<stop  offset="0" style="stop-color:#FFE380"/>
			<stop  offset="1" style="stop-color:#FFAB00"/>
		</linearGradient>
		<path id="Star-Copy-35" class="st54" d="M121.1,26.5l6,2.3l2.4,6c0.1,0.1,0.2,0.2,0.3,0.3c0.3,0.1,0.6,0,0.7-0.3l2.4-6l6-2.3
			c0.1-0.1,0.2-0.2,0.3-0.3c0.1-0.3,0-0.5-0.3-0.6l-6-2.3l-2.4-6c-0.1-0.1-0.2-0.2-0.3-0.3c-0.3-0.1-0.6,0-0.7,0.3l-2.4,6l-6,2.3
			c-0.1,0.1-0.2,0.2-0.3,0.3C120.7,26.1,120.8,26.4,121.1,26.5z"/>
	</g>
</g>
</svg>
